<?xml version="1.0" encoding="UTF-8"?>
<svg width="512pt" height="512pt" version="1.1" viewBox="0 0 512 512" xmlns="http://www.w3.org/2000/svg">
 <g fill-rule="evenodd">
  <path d="m195.05 134.04c-17.344-5.7617-36.438-1.2578-49.367 11.648-12.906 12.93-17.406 32.02-11.648 49.367 22.699 68.074 59.625 178.84 85.781 257.3 6.5508 19.691 24.98 32.98 45.738 32.98 20.758 0 39.188-13.289 45.762-32.98l35.266-105.77 105.77-35.266c19.691-6.5703 32.98-25.004 32.98-45.762 0-20.758-13.289-39.188-32.98-45.738zm-10.133 30.355 257.32 85.781c6.6328 2.1992 11.094 8.4062 11.094 15.383 0 6.9961-4.457 13.184-11.094 15.402l-113.37 37.781c-4.7773 1.6016-8.5352 5.3555-10.133 10.133l-37.781 113.37c-2.2188 6.6328-8.4062 11.094-15.402 11.094-6.9766 0-13.184-4.457-15.383-11.094l-85.781-257.32c-1.9414-5.8242-0.42578-12.246 3.9258-16.598 4.3516-4.3516 10.773-5.8672 16.598-3.9258z"/>
  <path d="m73.324 95.957 28.949 28.949c6.25 6.2305 16.383 6.2305 22.633 0 6.2305-6.25 6.2305-16.383 0-22.633l-28.949-28.949c-6.25-6.25-16.383-6.25-22.633 0s-6.25 16.383 0 22.633z"/>
  <path d="m42.668 201.96h40.938c8.832 0 16-7.168 16-16 0-8.832-7.168-16-16-16h-40.938c-8.832 0-16 7.168-16 16 0 8.832 7.168 16 16 16z"/>
  <path d="m95.957 298.58 28.949-28.949c6.2305-6.2305 6.2305-16.363 0-22.613-6.25-6.25-16.383-6.25-22.633 0l-28.949 28.949c-6.25 6.2305-6.25 16.383 0 22.613 6.25 6.25 16.383 6.25 22.633 0z"/>
  <path d="m269.63 124.91 28.949-28.949c6.25-6.25 6.25-16.383 0-22.633-6.2305-6.25-16.363-6.25-22.613 0l-28.949 28.949c-6.25 6.25-6.25 16.383 0 22.633 6.25 6.2305 16.383 6.2305 22.613 0z"/>
  <path d="m201.96 83.605v-40.938c0-8.832-7.168-16-16-16-8.832 0-16 7.168-16 16v40.938c0 8.832 7.168 16 16 16 8.832 0 16-7.168 16-16z"/>
 </g>
</svg>
