<?xml version="1.0" encoding="UTF-8"?>
<svg width="512pt" height="512pt" version="1.1" viewBox="0 0 512 512" xmlns="http://www.w3.org/2000/svg">
 <g>
  <path d="m423.23 242.18-6.6094-37.02 35.039-46.273-51.566-64.125-56.188 22.48-27.766-14.547-15.863-53.543h-81.969l-15.867 53.543-27.766 14.547-56.191-22.48-51.559 64.125 35.031 46.273-6.6133 37.02-51.562 25.785 15.867 76.02 59.496 5.293 19.172 26.438-6.6094 54.867 70.734 33.719 37.68-39.668h38.344l37.684 39.668 70.73-33.719-6.6094-54.867 19.176-26.438 59.496-5.293 15.863-76.02zm-163.94 88.902c-41.07 0-74.359-33.289-74.359-74.359s33.289-74.359 74.359-74.359c41.07 0 74.367 33.289 74.367 74.359s-33.297 74.359-74.367 74.359z"/>
  <path d="m429.98 240.32c-2.2031-12.34-4.4062-24.68-6.6094-37.02-0.23438 1.7969-0.46875 3.5977-0.70703 5.3945 11.68-15.426 23.359-30.848 35.039-46.273 2.0117-2.6562 0.71875-6.2305-1.0938-8.4844-15.559-19.348-31.117-38.695-46.672-58.043-1.6289-2.0273-3.2617-4.0547-4.8906-6.082-1.3945-1.7344-4.7422-2.6289-6.8086-1.8008-18.73 7.4922-37.457 14.984-56.188 22.48 1.7969 0.23438 3.5938 0.46875 5.3945 0.70703-9.2539-4.8477-18.512-9.6992-27.766-14.547 1.0742 1.3945 2.1445 2.7891 3.2188 4.1836-5.2891-17.848-10.578-35.695-15.867-53.543-0.88672-2.9961-3.5898-5.1406-6.75-5.1406h-74.441-7.5273c-3.1602 0-5.8633 2.1445-6.75 5.1406-5.2891 17.848-10.578 35.695-15.867 53.543 1.0742-1.3945 2.1445-2.7891 3.2188-4.1836-9.2539 4.8477-18.512 9.6992-27.766 14.547 1.7969-0.23437 3.5977-0.46875 5.3945-0.70703-18.73-7.4922-37.461-14.984-56.191-22.48-2.0664-0.82812-5.418 0.066407-6.8086 1.8008-15.555 19.348-31.113 38.695-46.668 58.043-1.6289 2.0273-3.2617 4.0547-4.8906 6.082-1.8125 2.2539-3.1094 5.8242-1.0938 8.4844 11.676 15.426 23.355 30.848 35.031 46.273-0.23438-1.7969-0.46875-3.5977-0.70703-5.3945-2.2031 12.34-4.4062 24.68-6.6133 37.02 1.0742-1.3945 2.1445-2.7891 3.2188-4.1836l-51.562 25.781c-2.9062 1.4531-3.832 4.9648-3.2188 7.9062 5 23.961 10.004 47.918 15.004 71.879 0.28906 1.3828 0.57812 2.7617 0.86328 4.1406 0.67188 3.2188 3.7656 4.875 6.75 5.1406 19.832 1.7617 39.664 3.5273 59.496 5.293-2.0156-1.1562-4.0312-2.3125-6.043-3.4688 6.3906 8.8125 12.781 17.625 19.172 26.438-0.32031-1.1758-0.63672-2.3555-0.95703-3.5312-2.2031 18.289-4.4062 36.578-6.6094 54.867-0.26562 2.2188 1.4883 5.1016 3.4688 6.043 22.098 10.535 44.199 21.07 66.297 31.605 1.4766 0.70313 2.957 1.4102 4.4375 2.1133 2.8164 1.3438 6.1914 1.3203 8.4844-1.0938 12.559-13.223 25.117-26.445 37.68-39.668-1.6484 0.68359-3.3008 1.3672-4.9492 2.0508h38.344c-1.6484-0.68359-3.3008-1.3672-4.9492-2.0508 12.562 13.223 25.121 26.445 37.684 39.668 2.293 2.4141 5.668 2.4375 8.4844 1.0938 22.098-10.535 44.195-21.07 66.293-31.605 1.4766-0.70312 2.957-1.4102 4.4336-2.1133 1.9805-0.94531 3.7344-3.8281 3.4688-6.043-2.2031-18.289-4.4062-36.578-6.6094-54.867-0.32031 1.1758-0.63672 2.3555-0.95703 3.5312 6.3906-8.8125 12.785-17.625 19.176-26.438-2.0156 1.1562-4.0312 2.3125-6.043 3.4688 19.832-1.7617 39.664-3.5273 59.496-5.293 2.9844-0.26562 6.0781-1.9219 6.75-5.1406 5-23.961 10-47.918 15-71.879 0.28906-1.3828 0.57422-2.7617 0.86328-4.1406 0.61328-2.9375-0.3125-6.4531-3.2188-7.9062l-51.562-25.781c-3.4141-1.707-7.5586-0.9375-9.5781 2.5117-1.832 3.1289-0.89844 7.8711 2.5117 9.5781l51.562 25.781c-1.0742-2.6367-2.1445-5.2695-3.2188-7.9062-5 23.961-10 47.918-14.996 71.879-0.28906 1.3828-0.57812 2.7617-0.86328 4.1406 2.25-1.7148 4.5-3.4258 6.75-5.1406-11.562 1.0273-23.121 2.0547-34.684 3.0859-6.8008 0.60547-13.602 1.2109-20.402 1.8164-1.4258 0.12891-2.8477 0.25391-4.2734 0.37891-3.8242 0.33984-5.5547 2.6172-7.5469 5.3633-4.3359 5.9805-8.6758 11.961-13.012 17.938-2.5508 3.5195-6.1406 6.9375-5.582 11.578 1.668 13.832 3.332 27.668 5 41.5 0.48047 3.9766 0.95703 7.957 1.4375 11.934 1.1562-2.0156 2.3125-4.0312 3.4688-6.043-22.098 10.535-44.195 21.07-66.293 31.605-1.4766 0.70313-2.957 1.4102-4.4336 2.1133 2.8281 0.36328 5.6562 0.73047 8.4844 1.0938-8.25-8.6836-16.496-17.367-24.746-26.051-4.0195-4.2305-8.0391-8.4609-12.059-12.695-1.6875-1.7773-3.6133-2.9727-6.2305-2.9727h-6.7422-23.246c-4.6406 0-10.074-0.92578-13.566 2.75-9.3828 9.8789-18.766 19.754-28.145 29.633-2.957 3.1133-5.9102 6.2227-8.8672 9.3359 2.8281-0.36328 5.6562-0.73047 8.4844-1.0938-22.098-10.535-44.199-21.07-66.297-31.605-1.4766-0.70312-2.957-1.4102-4.4375-2.1133 1.1562 2.0156 2.3125 4.0312 3.4688 6.043 1.4336-11.914 2.8711-23.828 4.3086-35.742 0.71094-5.8984 1.4219-11.793 2.1328-17.691 0.55859-4.6406-3.0273-8.0586-5.582-11.578-4.3359-5.9805-8.6719-11.961-13.008-17.938-1.9883-2.7461-3.7227-5.0234-7.5469-5.3633-1.4258-0.125-2.8477-0.25391-4.2734-0.37891-14.621-1.3008-29.242-2.6016-43.867-3.9023-3.7422-0.33203-7.4805-0.66406-11.223-0.99609 2.25 1.7148 4.5 3.4258 6.75 5.1406-5-23.961-10.004-47.918-15.004-71.879-0.28906-1.3828-0.57812-2.7617-0.86328-4.1406-1.0742 2.6367-2.1445 5.2695-3.2188 7.9062 10.59-5.2969 21.18-10.59 31.77-15.887 5.7695-2.8828 11.535-5.7695 17.305-8.6523 1.9648-0.98047 3.7969-1.6992 5.0039-3.7578 1.0234-1.7422 1.1289-4.0312 1.4727-5.9727 1.3398-7.5117 2.6836-15.023 4.0234-22.535 0.51172-2.875 1.0273-5.7461 1.5391-8.6211 0.4375-2.4414 0.99609-5.0781-0.64062-7.2383-7.7812-10.277-15.566-20.559-23.348-30.836-3.8242-5.0508-7.6484-10.102-11.473-15.156-0.36328 2.8281-0.73047 5.6562-1.0938 8.4844 15.555-19.348 31.113-38.695 46.668-58.043 1.6289-2.0273 3.2617-4.0547 4.8906-6.082-2.2695 0.60156-4.5391 1.1992-6.8086 1.8008 10.75 4.3008 21.5 8.6016 32.25 12.902 6.4453 2.5781 12.895 5.1562 19.34 7.7383 1.4531 0.58203 2.9062 1.1602 4.3594 1.7422 2.6953 1.0781 5.1875-0.375 7.4961-1.582 6.4492-3.3789 12.898-6.7578 19.348-10.137 2.1133-1.1055 4.2227-2.2148 6.3359-3.3203 2.3867-1.25 3.1992-3.4922 3.8945-5.832 3.9727-13.402 7.9414-26.801 11.914-40.199 1.168-3.9336 2.332-7.8711 3.5-11.805-2.25 1.7148-4.5 3.4258-6.75 5.1406h74.441 7.5273c-2.25-1.7148-4.5-3.4258-6.75-5.1406 3.3906 11.441 6.7812 22.883 10.172 34.328 1.7305 5.8359 3.457 11.668 5.1875 17.504 0.69922 2.3672 1.4375 4.6953 3.8672 5.9688 2.0117 1.0547 4.0273 2.1094 6.0391 3.1641 6.4961 3.4023 12.988 6.8047 19.484 10.211 2.3438 1.2266 4.9258 2.8281 7.6719 1.7344 1.3867-0.55469 2.7695-1.1094 4.1562-1.6641 13.695-5.4805 27.391-10.961 41.09-16.438 3.5898-1.4336 7.1758-2.8711 10.762-4.3047-2.2695-0.60156-4.5391-1.1992-6.8086-1.8008 15.559 19.348 31.117 38.695 46.672 58.043 1.6289 2.0273 3.2617 4.0547 4.8906 6.082-0.36328-2.8281-0.73047-5.6562-1.0938-8.4844-7.082 9.3516-14.164 18.707-21.246 28.059-3.9492 5.2148-7.8984 10.434-11.852 15.648-0.64844 0.85547-1.293 1.707-1.9414 2.5625-1.7656 2.332-0.53906 6.3281-0.050781 9.0586 1.9844 11.121 3.9727 22.238 5.957 33.359 0.67188 3.7617 5.1914 5.8281 8.6094 4.8906 3.8984-1.0938 5.5312-4.8711 4.8594-8.625z"/>
  <path d="m259.29 324.08c-2.7852-0.011719-5.5586-0.16406-8.332-0.46094-2.2461-0.23828 1.3672 0.21875-0.85938-0.10547-0.67578-0.097657-1.3477-0.21484-2.0195-0.32812-1.5586-0.26953-3.1016-0.60938-4.6367-0.97656-2.6055-0.625-5.1641-1.4258-7.6875-2.3281-3-1.0742-3.6367-1.3828-6.8164-2.9961-2.3438-1.1875-4.6055-2.5312-6.8086-3.9609-1.0977-0.71094-2.168-1.4688-3.2266-2.2383-0.078125-0.058594-1.7891-1.3633-0.66406-0.48828-0.6875-0.53516-1.3555-1.0938-2.0234-1.6523-2-1.6797-3.8867-3.4844-5.6992-5.3633-0.90625-0.9375-1.7773-1.9141-2.6328-2.8984-0.42969-0.49219-0.84375-0.99609-1.2578-1.5-0.27734-0.33594-0.54688-0.67578-0.81641-1.0195 0.42578 0.55859 0.39453 0.51172-0.097656-0.13672-3.2969-4.375-6.043-9.1445-8.2969-14.133-0.89453-1.9805 0.49609 1.25-0.33203-0.76563-0.25391-0.61328-0.48828-1.2344-0.72266-1.8555-0.47266-1.2461-0.89453-2.5117-1.2969-3.7852-0.88281-2.7812-1.5664-5.6289-2.1133-8.4961-0.12891-0.66797-0.23828-1.3398-0.34766-2.0117-0.015625-0.10156-0.3125-2.332-0.12891-0.85156-0.17187-1.3711-0.28516-2.7461-0.38281-4.125-0.21094-3.0234-0.19531-6.0586-0.042969-9.0859 0.070313-1.3828 0.19922-2.7617 0.34375-4.1367 0.23828-2.2461-0.21875 1.3672 0.10547-0.85938 0.097656-0.67578 0.21484-1.3477 0.32812-2.0195 0.49609-2.8828 1.2031-5.7227 2.0391-8.5234 0.38281-1.2812 0.81641-2.543 1.2656-3.8008 0.22266-0.625 0.46484-1.2461 0.70703-1.8633 0.035156-0.09375 0.88281-2.1055 0.30859-0.77734 1.1289-2.6211 2.4453-5.1641 3.8711-7.6367 3.0508-5.2969 5.1562-8.0039 9.0547-12.184 1.7812-1.9102 3.6836-3.6992 5.6523-5.4141 0.49219-0.42969 0.99609-0.84375 1.5-1.2578 0.074219-0.0625 1.7656-1.3906 0.63672-0.52344 1.2109-0.92969 2.4609-1.8047 3.7266-2.6562 2.1758-1.4688 4.4492-2.7891 6.7695-4.0195 1.1641-0.61719 2.3555-1.1875 3.5508-1.7422 0.089844-0.042968 2.0859-0.91406 0.75391-0.35156 0.81641-0.34375 1.6406-0.66016 2.4688-0.97266 2.5039-0.94922 5.0664-1.7227 7.6562-2.3945 1.3086-0.33984 2.6289-0.625 3.957-0.89062 0.66797-0.13281 1.3359-0.25 2.0078-0.36328 0.24609-0.042968 2.9141-0.41406 1.5234-0.23828 5.75-0.72266 11.586-0.69531 17.344-0.078125 2.2461 0.23828-1.3672-0.21875 0.85938 0.10547 0.67578 0.097656 1.3477 0.21484 2.0195 0.32812 1.3359 0.23047 2.6602 0.51562 3.9805 0.82031 2.8281 0.64844 5.6094 1.5039 8.3438 2.4844 0.625 0.22266 1.2461 0.46484 1.8633 0.70703 0.09375 0.035157 2.1055 0.88281 0.77734 0.30859 1.2148 0.52344 2.4062 1.0938 3.5898 1.6797 2.5508 1.2656 5.0078 2.7109 7.3984 4.2578 8.1914 5.3125 15.602 13.188 20.785 21.832 1.3555 2.2578 2.5586 4.6055 3.6641 6.9961 0.042968 0.089844 0.91406 2.0859 0.35156 0.75391 0.25781 0.61328 0.49609 1.2305 0.73828 1.8477 0.5625 1.4492 1.0625 2.9219 1.5312 4.4062 0.81641 2.5664 1.457 5.1875 1.9883 7.8281 0.26953 1.3359 0.48047 2.6836 0.67578 4.0312-0.21484-1.4805 0.070312 0.76562 0.078125 0.86719 0.097656 0.91797 0.16406 1.8359 0.23047 2.7578 0.19531 2.793 0.19531 5.5938 0.078125 8.3906-0.058594 1.3867-0.17188 2.7656-0.30859 4.1445-0.011719 0.097656-0.28125 2.3477-0.078125 0.86719-0.12109 0.90234-0.27344 1.8008-0.42578 2.6953-0.46094 2.6602-1.1016 5.2891-1.8477 7.8828-0.37109 1.2852-0.79297 2.5508-1.2305 3.8164-0.21875 0.62891-0.45312 1.25-0.69141 1.8711-0.085938 0.22656-1.0898 2.6445-0.55078 1.3945-2.168 5.0312-4.9609 9.7812-8.1758 14.211-0.058594 0.078125-1.3672 1.7852-0.48828 0.66406-0.40234 0.51562-0.81641 1.0195-1.2344 1.5234-0.83203 1.0078-1.6992 1.9805-2.582 2.9453-1.9102 2.0859-3.9648 4.0352-6.0977 5.8906-11.574 10.062-27.785 15.887-43.57 15.957-3.8164 0.015625-7 3.1719-7 7 0 3.8008 3.1836 7.0156 7 7 23.566-0.10938 46.391-10.43 61.73-28.391 15.926-18.641 22.285-43.137 18.355-67.23-3.7422-22.953-18.383-43.383-38.082-55.434-20.328-12.434-46.176-15.012-68.633-7.1953-22.535 7.8438-40.09 25.199-49.086 47.152-9.0703 22.133-6.9219 48.012 4.3789 68.895 14.012 25.898 42.051 42.066 71.332 42.203 3.8164 0.015625 7-3.1992 7-7 0.003907-3.8281-3.1797-6.9805-6.9961-7z"/>
 </g>
</svg>
