<?xml version="1.0" encoding="UTF-8"?>
<svg width="512pt" height="512pt" version="1.1" viewBox="0 0 512 512" xmlns="http://www.w3.org/2000/svg">
 <g>
  <path d="m256 409.09c-84.48 0-152.57-68.609-152.57-152.57 0-84.48 68.098-153.09 152.57-153.09 84.48 0 152.57 68.605 152.57 152.57 0 84.48-68.094 153.09-152.57 153.09zm0-290.3c-75.777 0-137.21 61.441-137.21 137.21 0 75.777 61.441 137.21 137.21 137.21 75.777 0 137.21-61.441 137.21-137.21 0-75.777-61.438-137.21-137.21-137.21z"/>
  <path d="m180.22 186.37c-5.1211-5.1211-12.801-4.6094-17.406 1.5352-12.801 21.504-10.754 50.688 7.6797 69.633 18.945 18.945 47.105 21.504 69.633 7.6797 6.1445-4.0977 6.6562-12.289 1.5352-17.406-14.336-14.336-46.078-46.082-61.441-61.441z"/>
  <path d="m331.78 326.14c5.1211 5.1211 12.801 4.6094 17.406-1.5352 12.801-21.504 10.754-50.688-7.6797-69.633-18.945-18.945-47.105-21.504-69.633-7.6797-6.1445 4.0977-7.168 11.777-1.5352 17.406 14.336 14.336 46.078 46.082 61.441 61.441z"/>
  <path d="m326.66 180.22c5.1211-5.1211 4.6094-12.801-1.5352-17.406-21.504-12.801-50.688-10.754-69.633 7.6797-18.945 18.945-21.504 47.105-7.6797 69.633 4.0977 6.1445 12.289 6.6562 17.406 1.5352 13.312-13.312 46.082-46.078 61.441-61.441z"/>
  <path d="m186.37 332.8c-5.1211 5.1211-4.6094 12.801 1.5352 17.406 21.504 12.801 50.688 10.754 69.633-7.6797 18.945-18.945 21.504-47.105 7.6797-69.633-4.0938-6.1406-12.285-6.6562-17.406-1.5352-13.312 13.312-46.082 46.082-61.441 61.441z"/>
 </g>
</svg>
