<?xml version="1.0" encoding="UTF-8"?>
<svg width="512pt" height="512pt" version="1.1" viewBox="0 0 512 512" xmlns="http://www.w3.org/2000/svg">
 <path d="m256 25.602c-61.105 0-119.71 24.273-162.92 67.48s-67.48 101.81-67.48 162.92 24.273 119.71 67.48 162.92 101.81 67.48 162.92 67.48 119.71-24.273 162.92-67.48 67.48-101.81 67.48-162.92c0-40.445-10.645-80.176-30.867-115.2-20.223-35.027-49.305-64.109-84.332-84.332-35.023-20.223-74.754-30.867-115.2-30.867zm40.961 348.16c0 14.633-7.8086 28.152-20.48 35.469-12.672 7.3203-28.289 7.3203-40.961 0-12.672-7.3164-20.48-20.836-20.48-35.469v-102.4c0-14.633 7.8086-28.156 20.48-35.473 12.672-7.3164 28.289-7.3164 40.961 0 12.672 7.3164 20.48 20.84 20.48 35.473zm-40.961-194.56c-10.863 0-21.281-4.3164-28.965-11.996-7.6797-7.6797-11.996-18.102-11.996-28.965s4.3164-21.281 11.996-28.961c7.6836-7.6836 18.102-11.996 28.965-11.996s21.281 4.3125 28.965 11.996c7.6797 7.6797 11.996 18.098 11.996 28.961s-4.3164 21.285-11.996 28.965c-7.6836 7.6797-18.102 11.996-28.965 11.996z"/>
</svg>
